<?xml version="1.0" encoding="UTF-8" standalone="no"?>
<!DOCTYPE svg PUBLIC "-//W3C//DTD SVG 1.1//EN"
 "http://www.w3.org/Graphics/SVG/1.1/DTD/svg11.dtd">
<!-- Generated by graphviz version 2.40.1 (20161225.0304)
 -->
<!-- Title: state transitions Pages: 1 -->
<svg width="245pt" height="270pt"
 viewBox="0.00 0.00 245.00 270.00" xmlns="http://www.w3.org/2000/svg" xmlns:xlink="http://www.w3.org/1999/xlink">
<g id="graph0" class="graph" transform="scale(1 1) rotate(0) translate(4 266)">
<title>state transitions</title>
<polygon fill="#ffffff" stroke="transparent" points="-4,4 -4,-266 241,-266 241,4 -4,4"/>
<g id="clust1" class="cluster state regular">
<title>cluster_state</title>
<path fill="none" stroke="#000000" stroke-width="2" d="M20,-8C20,-8 217,-8 217,-8 223,-8 229,-14 229,-20 229,-20 229,-242 229,-242 229,-248 223,-254 217,-254 217,-254 20,-254 20,-254 14,-254 8,-248 8,-242 8,-242 8,-20 8,-20 8,-14 14,-8 20,-8"/>
<text text-anchor="start" x="105.4944" y="-235.2" font-family="Helvetica,sans-Serif" font-size="12.00" fill="#000000">state</text>
</g>
<!-- state -->
<!-- INIT -->
<g id="node2" class="node state regular">
<title>INIT</title>
<polygon fill="#ffffff" fill-opacity="0.003922" stroke="transparent" stroke-width="2" points="132,-216 76,-216 76,-180 132,-180 132,-216"/>
<text text-anchor="start" x="92.6684" y="-194.2" font-family="Helvetica,sans-Serif" font-size="12.00" fill="#000000">INIT</text>
<path fill="none" stroke="#000000" stroke-width="2" d="M88.3333,-181C88.3333,-181 119.6667,-181 119.6667,-181 125.3333,-181 131,-186.6667 131,-192.3333 131,-192.3333 131,-203.6667 131,-203.6667 131,-209.3333 125.3333,-215 119.6667,-215 119.6667,-215 88.3333,-215 88.3333,-215 82.6667,-215 77,-209.3333 77,-203.6667 77,-203.6667 77,-192.3333 77,-192.3333 77,-186.6667 82.6667,-181 88.3333,-181"/>
</g>
<!-- AWAIT_USB_HOST -->
<g id="node3" class="node state regular">
<title>AWAIT_USB_HOST</title>
<polygon fill="#ffffff" fill-opacity="0.003922" stroke="transparent" stroke-width="2" points="169.5,-134 38.5,-134 38.5,-98 169.5,-98 169.5,-134"/>
<text text-anchor="start" x="49.8304" y="-112.2" font-family="Helvetica,sans-Serif" font-size="12.00" fill="#000000">AWAIT_USB_HOST</text>
<path fill="none" stroke="#000000" stroke-width="2" d="M50.8333,-99C50.8333,-99 157.1667,-99 157.1667,-99 162.8333,-99 168.5,-104.6667 168.5,-110.3333 168.5,-110.3333 168.5,-121.6667 168.5,-121.6667 168.5,-127.3333 162.8333,-133 157.1667,-133 157.1667,-133 50.8333,-133 50.8333,-133 45.1667,-133 39.5,-127.3333 39.5,-121.6667 39.5,-121.6667 39.5,-110.3333 39.5,-110.3333 39.5,-104.6667 45.1667,-99 50.8333,-99"/>
</g>
<!-- INIT&#45;&gt;AWAIT_USB_HOST -->
<g id="edge1" class="edge transition">
<title>INIT&#45;&gt;AWAIT_USB_HOST</title>
<path fill="none" stroke="#000000" d="M104,-179.8015C104,-169.3976 104,-156.1215 104,-144.3768"/>
<polygon fill="#000000" stroke="#000000" points="107.5001,-144.1476 104,-134.1476 100.5001,-144.1476 107.5001,-144.1476"/>
<text text-anchor="middle" x="105.3895" y="-154" font-family="Helvetica,sans-Serif" font-size="10.00" fill="#000000"> </text>
</g>
<!-- SEND_TO_USB_HOST -->
<g id="node4" class="node state regular">
<title>SEND_TO_USB_HOST</title>
<polygon fill="#ffffff" fill-opacity="0.003922" stroke="transparent" stroke-width="2" points="194,-52 44,-52 44,-16 194,-16 194,-52"/>
<text text-anchor="start" x="54.9956" y="-30.2" font-family="Helvetica,sans-Serif" font-size="12.00" fill="#000000">SEND_TO_USB_HOST</text>
<path fill="none" stroke="#000000" stroke-width="2" d="M56.3333,-17C56.3333,-17 181.6667,-17 181.6667,-17 187.3333,-17 193,-22.6667 193,-28.3333 193,-28.3333 193,-39.6667 193,-39.6667 193,-45.3333 187.3333,-51 181.6667,-51 181.6667,-51 56.3333,-51 56.3333,-51 50.6667,-51 45,-45.3333 45,-39.6667 45,-39.6667 45,-28.3333 45,-28.3333 45,-22.6667 50.6667,-17 56.3333,-17"/>
</g>
<!-- AWAIT_USB_HOST&#45;&gt;SEND_TO_USB_HOST -->
<g id="edge2" class="edge transition">
<title>AWAIT_USB_HOST&#45;&gt;SEND_TO_USB_HOST</title>
<path fill="none" stroke="#000000" d="M66.8785,-97.8089C55.9304,-89.8565 48.4019,-79.8634 54.85,-69 57.1711,-65.0895 60.0998,-61.5879 63.4206,-58.4574"/>
<polygon fill="#000000" stroke="#000000" points="65.6282,-61.1734 71.2326,-52.1822 61.2445,-55.716 65.6282,-61.1734"/>
<text text-anchor="start" x="54" y="-72" font-family="Helvetica,sans-Serif" font-size="10.00" fill="#000000">!ftdi_txe_n &amp;&amp; ftdi_axis.tvalid &#160;&#160;</text>
</g>
<!-- SEND_TO_USB_HOST&#45;&gt;AWAIT_USB_HOST -->
<g id="edge3" class="edge transition">
<title>SEND_TO_USB_HOST&#45;&gt;AWAIT_USB_HOST</title>
<path fill="none" stroke="#000000" d="M178.4229,-52.0964C191.8896,-59.4226 200.1242,-69.0256 192,-81 188.3047,-86.4466 183.6133,-91.0456 178.3276,-94.929"/>
<polygon fill="#000000" stroke="#000000" points="176.1667,-92.1546 169.5902,-100.4613 179.9114,-98.0688 176.1667,-92.1546"/>
<text text-anchor="middle" x="196.3895" y="-72" font-family="Helvetica,sans-Serif" font-size="10.00" fill="#000000"> </text>
</g>
</g>
</svg>
